<svg id="Ebene_1" data-name="Ebene 1" xmlns="http://www.w3.org/2000/svg" width="20" height="20" viewBox="0 0 20 20">
<style type="text/css">
	.st0{fill:#7F8C9B;}
</style>
<path id="dark" class="st0" d="M8,15H4c-1.1,0-2-0.9-2-2V5c0-1.1,0.9-2,2-2h5c0.6,0,1,0.4,1,1v1h6c1.1,0,2,0.9,2,2v5h-1V7
	c0-0.6-0.4-1-1-1H4C3.4,6,3,6.4,3,7v6c0,0.6,0.4,1,1,1h4V15z M19,15v3c0,1.1-0.9,2-2,2h-1.7c-0.2,0-0.3-0.1-0.3-0.3v-6.4
	c0-0.2,0.1-0.3,0.3-0.3H17C18.1,13,19,13.9,19,15z M18,15c0-0.6-0.4-1-1-1h-1v5h1c0.6,0,1-0.4,1-1V15z M13.7,13h-0.4
	c-0.2,0-0.3,0.1-0.3,0.3v0.4c0,0.2-0.1,0.3-0.3,0.3h-0.4c-0.2,0-0.3,0.1-0.3,0.3v0.4c0,0.2-0.1,0.3-0.3,0.3h-0.4
	c-0.2,0-0.3-0.1-0.3-0.3v-0.4c0-0.2-0.1-0.3-0.3-0.3h-0.4c-0.2,0-0.3-0.1-0.3-0.3v-0.4c0-0.2-0.1-0.3-0.3-0.3H9.3
	C9.1,13,9,13.1,9,13.3v6.4C9,19.9,9.1,20,9.3,20h0.4c0.2,0,0.3-0.1,0.3-0.3v-3.4c0-0.2,0.1-0.3,0.3-0.3h0.4c0.2,0,0.3,0.1,0.3,0.3
	v0.4c0,0.2,0.1,0.3,0.3,0.3h0.4c0.2,0,0.3-0.1,0.3-0.3v-0.4c0-0.2,0.1-0.3,0.3-0.3h0.4c0.2,0,0.3,0.1,0.3,0.3v3.4
	c0,0.2,0.1,0.3,0.3,0.3h0.4c0.2,0,0.3-0.1,0.3-0.3v-6.4C14,13.1,13.9,13,13.7,13z"/>
</svg>
